PathFileType	3	(X/Y/Z)	F:\ViconData\AntennenMessung\Messung1\Session1\ID11.trc
DataRate	CameraRate	NumFrames	NumMarkers	Units	OrigDataRate	OrigDataStartFrame	OrigNumFrames
120.0	120.0	4	70	mm	120.0	483	1286	
Frame#	Time	Ashort			Along			Atop			A4			Bshort			Blong			Btop			B4			Cshort			Clong			Ctop			C4			Dshort			Dlong			Dtop			D4			Eshort			Elong			Etop			E4			Fshort			Flong			Ftop			F4			Gshort			Glong			Gtop			G4			Hshort			Hlong			Htop			H4			I1			I2			I3			I4			I5			WandAshort			WandAlong			WandAtop			WandA4			WandA15			WandBshort			WandB4			WandB5			WandBtop			WandBlong			WandCshort			WandClong			WandCtop			WandC4			WandC5			Acenter			Aantenna			Bcenter			Bantenna			Ccenter			Cantenna			Dcenter			Dantenna			Ecenter			Eantenna			Fcenter			Fantenna			Gcenter			Gantenna			Hcenter			Hantenna			Icenter			Iantenna			
		X1	Y1	Z1	X2	Y2	Z2	X3	Y3	Z3	X4	Y4	Z4	X5	Y5	Z5	X6	Y6	Z6	X7	Y7	Z7	X8	Y8	Z8	X9	Y9	Z9	X10	Y10	Z10	X11	Y11	Z11	X12	Y12	Z12	X13	Y13	Z13	X14	Y14	Z14	X15	Y15	Z15	X16	Y16	Z16	X17	Y17	Z17	X18	Y18	Z18	X19	Y19	Z19	X20	Y20	Z20	X21	Y21	Z21	X22	Y22	Z22	X23	Y23	Z23	X24	Y24	Z24	X25	Y25	Z25	X26	Y26	Z26	X27	Y27	Z27	X28	Y28	Z28	X29	Y29	Z29	X30	Y30	Z30	X31	Y31	Z31	X32	Y32	Z32	X33	Y33	Z33	X34	Y34	Z34	X35	Y35	Z35	X36	Y36	Z36	X37	Y37	Z37	X38	Y38	Z38	X39	Y39	Z39	X40	Y40	Z40	X41	Y41	Z41	X42	Y42	Z42	X43	Y43	Z43	X44	Y44	Z44	X45	Y45	Z45	X46	Y46	Z46	X47	Y47	Z47	X48	Y48	Z48	X49	Y49	Z49	X50	Y50	Z50	X51	Y51	Z51	X52	Y52	Z52	X53	Y53	Z53	X54	Y54	Z54	X55	Y55	Z55	X56	Y56	Z56	X57	Y57	Z57	X58	Y58	Z58	X59	Y59	Z59	X60	Y60	Z60	X61	Y61	Z61	X62	Y62	Z62	X63	Y63	Z63	X64	Y64	Z64	X65	Y65	Z65	X66	Y66	Z66	X67	Y67	Z67	X68	Y68	Z68	X69	Y69	Z69	X70	Y70	Z70	
483	4.0166667	-1038.1919	214.36787	-1644.1755	-1109.2744	203.75983	-1599.3695	-1063.7968	172.61162	-1625.4503	-1054.1604	262.21808	-1634.9872	-1352.877	234.89395	1003.7637	-1281.3412	227.17831	1052.387	-1322.8094	194.06772	1020.8752	-1284.6688	287.88452	1052.8082	814.05432	187.55952	1209.5104	892.74713	179.11261	1178.8121	844.37793	145.51938	1198.4067	860.5874	292.72232	1167.2574	1115.7544	209.77701	-1401.7306	1056.2528	194.15155	-1460.3225	1095.0249	162.24278	-1423.8749	1069.8901	238.62347	-1425.8636	-1204.4949	1685.9557	-1563.2441	-1129.1315	1688.2404	-1606.0382	-1173.1492	1724.444	-1581.9698	-1133.5728	1581.0078	-1603.6328	-1239.7316	1699.292	1119.4884	-1309.3761	1698.8445	1071.9196	-1270.4591	1736.351	1096.8818	-1245.5854	1592.9253	1110.7239	988.81152	1664.1893	1162.2909	957.4339	1700.3606	1183.8107	922.84985	1662.059	1215.0188	939.81476	1659.3682	1159.9949	999.0802	1668.5095	-1579.4319	1058.8918	1670.1519	-1518.65	1025.0145	1708.0089	-1551.1283	1059.2693	1672.1259	-1585.463	-26.491371	1172.8746	-954.07434	-111.47305	1171.7504	-962.98737	-64.782753	1209.6361	-959.30103	-60.649498	1170.618	-989.71063	-68.899666	1175.3873	-910.42169																																														-1068.9326	209.78023	-1624.7983	-1074.2701	248.40733	-1624.1208	-1321.5925	231.51971	1025.0277	-1320.3339	270.26196	1029.3235	847.71222	183.94667	1196.3802	851.07886	222.74718	1194.3342	1088.7665	202.68983	-1428.3058	1082.8375	241.00729	-1432.5033	-1171.8916	1686.944	-1581.7573	-1170.5845	1647.9666	-1581.5365	-1271.0497	1699.0906	1098.0972	-1271.6676	1660.1163	1099.3685	953.20624	1705.234	1186.7101	972.97363	1733.3489	1168.2762	1026.5122	1669.2627	-1551.5549	1028.0182	1630.2941	-1551.9841	-64.420731	1172.3728	-958.05237	-64.042068	1133.3965	-956.7464
484	4.025	-1038.2061	214.43488	-1644.2274	-1109.2896	203.80653	-1599.3828	-1063.7944	172.59784	-1625.4496	-1054.1877	262.20822	-1634.9761	-1352.9604	234.901	1003.7633	-1281.3005	227.09975	1052.3696	-1322.8501	194.0441	1020.9049	-1284.5984	287.95395	1052.7538	814.01715	187.57281	1209.5417	892.69202	179.30067	1178.7291	844.38153	145.5551	1198.4172	860.58191	292.72537	1167.3374	1115.7545	209.7663	-1401.7168	1056.2603	194.13564	-1460.2886	1095.0367	162.26164	-1423.8989	1069.8728	238.61124	-1425.8247	-1204.516	1685.9528	-1563.2417	-1129.1315	1688.2502	-1606.0332	-1173.1465	1724.4489	-1581.9694	-1133.5417	1581.0049	-1603.61	-1239.6974	1699.2468	1119.4719	-1309.3638	1698.7875	1071.8949	-1270.4301	1736.3074	1096.8638	-1244.6853	1593.9105	1106.601	988.90582	1664.2729	1162.3092	957.46045	1700.3506	1183.876	922.6524	1662.1755	1215.0145	939.80292	1659.3229	1160.0358	999.10071	1668.5143	-1579.4351	1058.8823	1670.1241	-1518.6537	1025.0164	1708.011	-1551.1359	1059.2699	1672.1281	-1585.4585	-26.482166	1172.9796	-954.38971	-111.47585	1171.7668	-962.9826	-64.834618	1209.7462	-959.27289	-60.795547	1170.5398	-989.61432	-68.910439	1175.3993	-910.40247																																														-1068.9661	209.83565	-1624.8217	-1074.3302	248.45949	-1624.1704	-1321.5831	231.48508	1025.0463	-1320.2721	270.22678	1029.3314	847.62909	184.03874	1196.3778	850.90405	222.84654	1194.3213	1088.7527	202.67221	-1428.2999	1082.7942	240.98781	-1432.4727	-1171.8867	1686.9471	-1581.7634	-1170.5773	1647.9697	-1581.5493	-1271.0168	1699.0403	1098.0828	-1271.6305	1660.0659	1099.3578	953.02307	1705.4417	1186.9192	972.8089	1733.6285	1168.6157	1026.5044	1669.2522	-1551.5729	1028.0007	1630.2833	-1552.0125	-64.408363	1172.4384	-958.224	-63.962982	1133.4563	-957.12811
485	4.0333333	-1038.2249	214.44783	-1644.2274	-1109.2708	203.83864	-1599.402	-1063.7848	172.60811	-1625.4498	-1054.1772	262.20102	-1634.9768	-1352.955	235.01424	1003.7457	-1281.2966	227.15317	1052.3712	-1322.8439	194.07475	1020.8461	-1284.5413	287.91022	1052.7124	814.06268	187.61301	1209.5822	892.32056	178.54698	1179.2783	844.50616	145.34404	1198.4247	860.65259	292.70972	1167.3291	1115.7103	209.48972	-1401.5598	1056.2498	194.10057	-1460.2769	1095.1136	162.54994	-1423.9623	1069.8933	238.61969	-1425.8745	-1204.5316	1685.9653	-1563.2443	-1129.1392	1688.2438	-1606.0334	-1173.1458	1724.4376	-1581.9736	-1133.5165	1581.0142	-1603.6047	-1239.6792	1699.2102	1119.4685	-1309.3588	1698.7781	1071.8975	-1270.4393	1736.3075	1096.8727	-1244.6699	1593.9255	1106.6157	988.85297	1664.2388	1162.3081	957.1861	1700.6488	1183.7844	922.67413	1662.0685	1214.9962	939.78595	1659.3474	1160.037	999.07758	1668.5319	-1579.4551	1058.8839	1670.1267	-1518.6646	1025.0161	1708.0109	-1551.1388	1059.2725	1672.1318	-1585.4615	-26.496681	1172.9568	-954.25415	-111.46298	1171.7178	-963.00824	-64.786209	1209.6472	-959.30206	-60.66716	1170.6108	-989.6886	-68.879745	1175.3915	-910.40625																																														-1068.9597	209.85822	-1624.8354	-1074.3256	248.48207	-1624.1986	-1321.5756	231.57184	1025.0389	-1320.2653	270.30841	1029.3705	848.15393	183.66359	1196.381	851.84467	222.43346	1194.3131	1088.8424	202.53598	-1428.0917	1082.8312	240.86604	-1432.05	-1171.8955	1686.9515	-1581.7668	-1170.5956	1647.9738	-1581.5518	-1271.0244	1699.0157	1098.0686	-1271.6361	1660.0405	1099.3185	953.11658	1705.3276	1186.5443	972.88336	1733.4164	1168.0701	1026.4995	1669.2631	-1551.5818	1027.9916	1630.2942	-1552.0273	-64.361214	1172.4045	-958.15527	-63.916409	1133.4255	-956.95508
486	4.0416667	-1038.2131	214.38303	-1644.3121	-1109.2639	203.87703	-1599.4668	-1063.8265	172.57631	-1625.4551	-1054.1947	262.16757	-1634.9504	-1352.9335	234.88858	1003.796	-1281.335	227.14134	1052.3936	-1322.8525	194.09009	1020.8342	-1284.743	287.88214	1052.8237	814.0733	187.58989	1209.5447	892.79895	179.153	1178.7545	844.61566	145.30377	1198.3718	860.62555	292.70261	1167.3407	1115.7499	209.77629	-1401.7188	1056.2626	194.15079	-1460.2936	1095.0597	162.45126	-1423.9636	1069.8665	238.61407	-1425.8767	-1204.5267	1685.9614	-1563.2524	-1129.131	1688.269	-1606.0626	-1173.1473	1724.4491	-1581.9658	-1133.5205	1581.0121	-1603.597	-1239.6948	1699.2312	1119.4734	-1309.3735	1698.8209	1071.9111	-1270.4569	1736.3351	1096.8781	-1244.6815	1593.9078	1106.5752	988.87848	1664.2551	1162.2969	957.17883	1700.5941	1183.8311	922.74426	1662.1718	1214.991	939.83594	1659.3618	1160.0215	999.0719	1668.5281	-1579.4763	1058.8848	1670.1285	-1518.6588	1025.0162	1707.9966	-1551.14	1059.2646	1672.1146	-1585.4579	-26.498207	1172.95	-954.2511	-111.39816	1171.6622	-962.9704	-64.780449	1209.6407	-959.31866	-60.664932	1170.6085	-989.69995	-68.895958	1175.4169	-910.38678																																														-1068.9806	209.83354	-1624.8923	-1074.3241	248.46133	-1624.3092	-1321.6512	231.50371	1025.0288	-1320.4075	270.24118	1029.3718	847.94666	183.95972	1196.2965	851.29016	222.76025	1194.2135	1088.7577	202.68628	-1428.2966	1082.7566	241.00027	-1432.423	-1171.8949	1686.9601	-1581.7809	-1170.5928	1647.9823	-1581.5887	-1271.0509	1699.0465	1098.0698	-1271.6718	1660.0714	1099.3154	953.01514	1705.3669	1186.6594	972.73285	1733.5032	1168.2052	1026.5037	1669.2621	-1551.5836	1028.0002	1630.2932	-1552.0299	-64.336586	1172.376	-958.13708	-63.872307	1133.3983	-956.90125
